<svg fill="none" viewBox="0 0 71 28" style="
    /* display: none; */
"><path fill="#56FEF8" d="M2 0h67v7H2z"></path><path fill="#FF811B" d="M71 3H0v13.758a1 1 0 0 0 .71.957l32.902 9.943a4 4 0 0 0 2.27.013l34.396-9.962a1 1 0 0 0 .722-.96V3Z"></path><path fill="#fff" d="m16.077 17.975-2.042-.588 4.451-4.22h-7.711V11.64H15V9h2v2.64h3.484c.653 0 1.15.782.58 1.366l-4.987 4.97ZM10 11V9l2.457-2.416c.146-.348.521-.51.872-.51h5.012c.424 0 .659.426.908.572L21.67 9v2l-3.995-3.385h-3.68L10 11Zm14-5h9v11c0 .51-.773.975-1.221.975H23V7c0-.522.552-1 1-1Zm6.907 1.876h-5.932v3.478h5.932V7.876Zm-5.932 8.497h5.932v-3.479h-5.932v3.479Zm9.479 1.565v-1.404h4.649v-.372H34.78v-1.317h4.322v-.336h-4.201v-4.012c0-.534.375-.783.823-.783h3.378v-.36h-4.649V8.05h4.649v-.385H34.84V6.36h10.411v1.305h-4.26v.385h4.648v1.304H40.99v.36h4.2v4c0 .534-.387.795-.822.795H40.99v.336h4.322v1.316H40.99v.373h4.649v1.404H34.454Zm4.649-6.92h-2.325v.485h2.325v-.484Zm4.2.485v-.484h-2.312v.484h2.312Zm-6.525 1.217v.473h2.325v-.473h-2.325Zm4.213.473h2.312v-.473h-2.312v.473Zm5.436-5.218v-1.54h4.164v1.54h-1.913l-.363 2.435h2.167v6.683c0 .51-.484.795-.896.795h-2.941v-5.304h-.351l.702-4.609h-.57ZM54.635 18l-.23-1.466h1.622v-.658h-2.82L52.818 18h-1.913l.763-4.186h-.763V12.31h2.603v-.907h1.912v.907h2.506v1.503H53.58l-.097.559h4.383v2.795l-1.46.832h-1.772ZM51.79 9.404l-.279-1.031h1.9l.28 1.03h1.464l.279-1.03h1.912l-.29 1.03H58v2.398h-1.84v-.882h-3.462v.882h-1.865v-1.515c0-.51.485-.82.957-.882Zm-.848-1.354V6.559h2.542V6h1.889v.559h2.53v1.49h-6.96Zm-2.155 3.8h-.435v4.597h.435v-4.596Z"></path></svg>
