<svg width="19.967" height="18.058" viewBox="0 0 19.967 18.058"><path d="M12.5 17.7a3.546 3.546 0 0 1-1.644-1.122 4.811 4.811 0 0 1-.87-1.606 10.031 10.031 0 0 1-.257-2.68v-6.07a11.681 11.681 0 0 1 .413-3.588A3.538 3.538 0 0 1 11.786.722a5.813 5.813 0 0 1 2.982-.72 6.248 6.248 0 0 1 2.556.5 4.259 4.259 0 0 1 1.687 1.219 4.03 4.03 0 0 1 .758 1.622 14.851 14.851 0 0 1 .2 2.879v5.8a13.754 13.754 0 0 1-.214 2.879 3.985 3.985 0 0 1-.892 1.687 3.836 3.836 0 0 1-1.633 1.128 6.277 6.277 0 0 1-2.138.344 7.942 7.942 0 0 1-2.592-.36Zm1.724-14.652a5.664 5.664 0 0 0-.156 1.714v8.486a6.284 6.284 0 0 0 .145 1.826.619.619 0 0 0 .628.311.611.611 0 0 0 .634-.365 5.429 5.429 0 0 0 .15-1.643V4.762a6.48 6.48 0 0 0-.134-1.735.593.593 0 0 0-.628-.349.62.62 0 0 0-.637.367ZM3 17.724V8.4a16.327 16.327 0 0 0-.1-2.428.9.9 0 0 0-.532-.617 5.513 5.513 0 0 0-1.938-.21H0v-2.03A7.894 7.894 0 0 0 4.78.332h2.557v17.392Z" fill="currentColor"></path></svg>
