<svg width="9.937" height="17.725" viewBox="0 0 9.937 17.725">
	<path
		d="M9.55 14.76v2.965H0v-2.481q4.243-6.94 5.044-8.589a6.49 6.49 0 0 0 .8-2.573 1.871 1.871 0 0 0-.242-1.057.834.834 0 0 0-.736-.349.809.809 0 0 0-.736.387 3.254 3.254 0 0 0-.242 1.536v1.654H0v-.634a13.792 13.792 0 0 1 .15-2.3 4.043 4.043 0 0 1 .741-1.66A3.719 3.719 0 0 1 2.427.424 5.569 5.569 0 0 1 4.694.005 5.419 5.419 0 0 1 8.61 1.284a4.329 4.329 0 0 1 1.327 3.25 7.73 7.73 0 0 1-.747 3.158 64.9 64.9 0 0 1-4.4 7.068Z"
		fill="currentColor"
	></path>
</svg>
