<svg width="10.237" height="18.079" viewBox="0 0 10.237 18.079">
	<path
		d="M8.282 7.884a2.691 2.691 0 0 1 1.473 1.091 8 8 0 0 1 .483 3.55 8.7 8.7 0 0 1-.473 3.217 3.358 3.358 0 0 1-1.634 1.741 6.5 6.5 0 0 1-2.976.596 6.391 6.391 0 0 1-3.238-.693 3.361 3.361 0 0 1-1.547-1.7A11.3 11.3 0 0 1 0 12.203v-1.375h4.34v2.825a4.577 4.577 0 0 0 .134 1.434.579.579 0 0 0 .6.306.646.646 0 0 0 .666-.387 7.213 7.213 0 0 0 .161-2.02v-1.2a3.523 3.523 0 0 0-.226-1.461 1.118 1.118 0 0 0-.666-.607 6.87 6.87 0 0 0-1.708-.167V7.025a8.745 8.745 0 0 0 1.912-.118.835.835 0 0 0 .526-.516A3.551 3.551 0 0 0 5.9 5.145v-.967a2.517 2.517 0 0 0-.188-1.2.648.648 0 0 0-.585-.29.639.639 0 0 0-.618.306 3.24 3.24 0 0 0-.167 1.305v1.429H0V4.246Q0 1.754 1.139.878a5.968 5.968 0 0 1 3.62-.875q3.1 0 4.211 1.214a4.823 4.823 0 0 1 1.106 3.373 4.217 4.217 0 0 1-.4 2.111 3.554 3.554 0 0 1-1.394 1.183Z"
		fill="currentColor"></path>
</svg>
