<svg width="10.42" height="18.068" viewBox="0 0 10.42 18.068">
	<path
		d="M10.42 4.963H6.081q0-1.214-.027-1.531a.794.794 0 0 0-.258-.532.886.886 0 0 0-.628-.215.763.763 0 0 0-.548.2.811.811 0 0 0-.247.526q-.032.322-.032 1.3v2.771a2.26 2.26 0 0 1 .977-1.047 3.3 3.3 0 0 1 1.59-.349 3.559 3.559 0 0 1 2.105.649 2.8 2.8 0 0 1 1.16 1.547 9.59 9.59 0 0 1 .247 2.438v1.386a19.21 19.21 0 0 1-.14 2.718 3.464 3.464 0 0 1-.747 1.649 3.932 3.932 0 0 1-1.664 1.176 6.671 6.671 0 0 1-2.465.419 7.278 7.278 0 0 1-2.868-.483 3.85 3.85 0 0 1-1.725-1.392 4.158 4.158 0 0 1-.709-1.906q-.1-1-.1-3.878V8.003q0-3.1.091-4.152A4.021 4.021 0 0 1 .84 1.869a3.978 3.978 0 0 1 1.789-1.4A6.82 6.82 0 0 1 5.245.002a6.645 6.645 0 0 1 3 .591 3.534 3.534 0 0 1 1.676 1.665 6.365 6.365 0 0 1 .499 2.705Zm-4.339 5.424a2.722 2.722 0 0 0-.2-1.268.715.715 0 0 0-.666-.344.727.727 0 0 0-.661.328 2.65 2.65 0 0 0-.209 1.284v3.148a3.622 3.622 0 0 0 .2 1.5.7.7 0 0 0 .661.354.883.883 0 0 0 .58-.274q.3-.274.3-1.477Z"
		fill="currentColor"></path>
</svg>
