<svg width="10.334" height="18.058" viewBox="0 0 10.334 18.058">
	<path
		d="M8.347 7.864a3.128 3.128 0 0 1 1.472 1.155 7.936 7.936 0 0 1 .516 3.658 8.754 8.754 0 0 1-.408 3.1 3.323 3.323 0 0 1-1.591 1.642 6.68 6.68 0 0 1-3.169.639 6.449 6.449 0 0 1-3.062-.612 3.663 3.663 0 0 1-1.614-1.621A8.326 8.326 0 0 1 0 12.461a13.585 13.585 0 0 1 .242-2.736 2.76 2.76 0 0 1 1.52-1.858 2.523 2.523 0 0 1-1.208-1.23 4.975 4.975 0 0 1-.4-2.143 4.3 4.3 0 0 1 1.242-3.369A5.413 5.413 0 0 1 5.124.002q2.868 0 3.964 1.192a4.855 4.855 0 0 1 1.1 3.405 4.265 4.265 0 0 1-.36 2.03 3.733 3.733 0 0 1-1.481 1.235ZM5.908 4.125a2.821 2.821 0 0 0-.156-1.166.617.617 0 0 0-.6-.285.584.584 0 0 0-.58.306 2.931 2.931 0 0 0-.15 1.144v1.321a2.389 2.389 0 0 0 .172 1.085.614.614 0 0 0 .58.3.589.589 0 0 0 .58-.3 3.165 3.165 0 0 0 .15-1.219Zm.083 7.23a2.843 2.843 0 0 0-.2-1.33.7.7 0 0 0-.645-.328.662.662 0 0 0-.618.317 3.052 3.052 0 0 0-.188 1.341v2.256a3.146 3.146 0 0 0 .209 1.45.731.731 0 0 0 .661.322.627.627 0 0 0 .623-.328 4.143 4.143 0 0 0 .158-1.476Z"
		fill="currentColor"></path>
</svg>
