<svg width="10.42" height="18.068" viewBox="0 0 10.42 18.068"><path d="M0 13.106h4.34q0 1.214.032 1.531a.816.816 0 0 0 .263.532.886.886 0 0 0 .628.215.763.763 0 0 0 .548-.2.789.789 0 0 0 .242-.526q.027-.322.027-1.3v-2.777a2.2 2.2 0 0 1-.966 1.044 3.328 3.328 0 0 1-1.6.349 3.559 3.559 0 0 1-2.105-.645 2.8 2.8 0 0 1-1.16-1.547 9.59 9.59 0 0 1-.247-2.438V5.958a18.507 18.507 0 0 1 .143-2.713 3.534 3.534 0 0 1 .747-1.649A3.888 3.888 0 0 1 2.557.419 6.713 6.713 0 0 1 5.027 0a7.246 7.246 0 0 1 2.857.483 3.885 3.885 0 0 1 1.729 1.391 4.079 4.079 0 0 1 .709 1.907q.1 1 .1 3.867v2.417q0 3.1-.086 4.152a3.953 3.953 0 0 1-.747 1.982 4.017 4.017 0 0 1-1.789 1.4 6.779 6.779 0 0 1-2.61.467 6.638 6.638 0 0 1-3-.591 3.566 3.566 0 0 1-1.679-1.662A6.306 6.306 0 0 1 0 13.106Zm4.34-5.425q0 1.1.285 1.354a.87.87 0 0 0 .585.258.727.727 0 0 0 .661-.328 2.65 2.65 0 0 0 .209-1.284V4.534a3.622 3.622 0 0 0-.2-1.5.7.7 0 0 0-.661-.354.883.883 0 0 0-.58.274q-.3.274-.3 1.477Z" fill="currentColor"></path></svg>
